<?xml version="1.0" encoding="utf-8"?>
<!-- Generator: Adobe Illustrator 26.5.0, SVG Export Plug-In . SVG Version: 6.00 Build 0)  -->
<svg version="1.1" id="Layer_1" xmlns="http://www.w3.org/2000/svg" xmlns:xlink="http://www.w3.org/1999/xlink" x="0px" y="0px"
	 viewBox="0 0 1000 1000" style="enable-background:new 0 0 1000 1000;" xml:space="preserve">
<style type="text/css">
	.st0{fill:#1B4C99;}
	.st1{fill:#FFFFFF;}
	.st2{fill-rule:evenodd;clip-rule:evenodd;fill:#FFFFFF;}
	.st3{fill:#2B89C8;}
	.st4{fill-rule:evenodd;clip-rule:evenodd;fill:#2B89C8;}
</style>
<rect x="0" class="st3" width="1000" height="1000"/>
<g>
	<g>
		<path class="st1" d="M554.03,485.26v-61.09h29.25c5.81,0,10.49,1.28,14.02,3.84c3.92,2.89,5.88,7.16,5.88,12.81
			c0,7.01-3.17,11.23-9.51,12.64c8.21,1.73,12.31,6.57,12.31,14.52c0,11.52-7.59,17.28-22.78,17.28H554.03z M574.65,438.69v8.55
			h2.88c3.64,0,5.47-1.43,5.47-4.3c0-2.84-1.82-4.26-5.47-4.26H574.65z M574.65,460.39v9.77h3.67c4.56,0,6.84-1.63,6.84-4.88
			c0-3.26-2.28-4.88-6.84-4.88H574.65z"/>
		<path class="st1" d="M613.83,485.26v-61.09h21.99v41.27h21.37v19.82H613.83z"/>
		<path class="st1" d="M663.24,457.3v-33.13h21.95v33.3c0,3.2,0.26,5.48,0.79,6.84c0.89,2.23,2.66,3.34,5.3,3.34
			c2.61,0,4.38-1.14,5.3-3.42c0.56-1.42,0.83-3.67,0.83-6.76v-33.3h21.95v33.13c0,8.15-1.2,14.08-3.59,17.78
			c-5.12,7.87-13.28,11.81-24.49,11.81c-11.24,0-19.42-3.94-24.54-11.81C664.41,471.43,663.24,465.51,663.24,457.3z"/>
		<path class="st1" d="M730.72,485.26v-61.09h40.85v16.57h-19.32v5.88h17.53v15.65h-17.53v6.43h19.82v16.57H730.72z"/>
	</g>
	<g>
		<path class="st1" d="M468.4,552.4c0,13.19-4.51,24.2-13.54,33.05c-9.03,8.85-20.25,13.27-33.68,13.27
			c-13.39,0-24.66-4.48-33.83-13.45c-8.89-8.64-13.33-19.6-13.33-32.87c0-13.35,4.48-24.4,13.45-33.17
			c8.97-8.76,20.2-13.15,33.71-13.15s24.76,4.4,33.74,13.21C463.91,528.1,468.4,539.13,468.4,552.4z M421.18,569.05
			c4.7,0,8.42-1.65,11.16-4.95c2.45-3.02,3.68-6.91,3.68-11.7c0-4.86-1.23-8.82-3.68-11.88c-2.73-3.3-6.45-4.95-11.16-4.95
			c-4.66,0-8.31,1.61-10.95,4.82c-2.63,3.22-3.95,7.22-3.95,12c0,4.78,1.27,8.68,3.8,11.7C412.82,567.4,416.52,569.05,421.18,569.05
			z"/>
		<path class="st1" d="M481.67,596.36v-88.29h31.78v59.64h30.88v28.64H481.67z"/>
		<path class="st1" d="M554.03,596.36v-88.29h37.93c12.42,0,21.73,2.21,27.92,6.63c7.08,5.19,10.61,13.71,10.61,25.57
			c0,10.97-3.14,18.84-9.41,23.58c-5.51,4.3-13.95,6.45-25.33,6.45h-9.95v26.05H554.03z M585.93,532.62v14.71h4.95
			c6.23,0,9.35-2.43,9.35-7.3c0-4.95-3.12-7.42-9.35-7.42H585.93z"/>
		<path class="st1" d="M641.42,596.36v-88.29h31.78v29.37h19.36v-29.37h31.72v88.29h-31.72v-31.12H673.2v31.12H641.42z"/>
		<path class="st1" d="M741.52,596.36v-88.29h32.26v88.29H741.52z"/>
		<path class="st1" d="M790.91,596.36v-88.29h31.12l27.44,46.19c-0.64-3.62-0.97-9.15-0.97-16.58v-29.61h30.58v88.29h-31.36
			l-27.14-45.83c0.64,3.94,0.97,8.6,0.97,13.99v31.84H790.91z"/>
	</g>
	<g>
		<path class="st2" d="M792.89,486.89c0,0,24.21-33.9,50.64-32.09c26.43,1.82,29.44-26.04,10.48-33.57
			C835.05,413.69,805.64,423.04,792.89,486.89"/>
	</g>
	<g>
		<path class="st2" d="M801.19,428.93c0,0,5.24-41.33-15.4-57.94c-20.63-16.61-3.93-39.11,15.1-31.76
			C819.92,346.56,835.18,373.4,801.19,428.93"/>
	</g>
	<g>
		<path class="st1" d="M377.15,648.89v-33.46h14.38c4.71,0,8.23,0.84,10.58,2.51c2.68,1.97,4.02,5.2,4.02,9.69
			c0,4.16-1.19,7.14-3.56,8.94c-2.09,1.63-5.29,2.45-9.6,2.45h-3.77v9.87H377.15z M389.24,624.74v5.58h1.87
			c2.36,0,3.54-0.92,3.54-2.76c0-1.87-1.18-2.81-3.54-2.81H389.24z"/>
		<path class="st1" d="M456.38,632.23c0,5-1.71,9.17-5.13,12.52c-3.42,3.35-7.67,5.03-12.76,5.03c-5.07,0-9.35-1.7-12.82-5.1
			c-3.37-3.28-5.05-7.43-5.05-12.45c0-5.06,1.7-9.25,5.1-12.57c3.4-3.32,7.66-4.98,12.78-4.98c5.12,0,9.38,1.67,12.79,5
			C454.68,623.02,456.38,627.2,456.38,632.23z M438.49,638.54c1.78,0,3.19-0.62,4.23-1.87c0.93-1.14,1.39-2.62,1.39-4.43
			c0-1.84-0.46-3.34-1.39-4.5c-1.04-1.25-2.45-1.87-4.23-1.87c-1.77,0-3.15,0.61-4.15,1.83s-1.5,2.74-1.5,4.55
			c0,1.81,0.48,3.29,1.44,4.43C435.32,637.91,436.72,638.54,438.49,638.54z"/>
		<path class="st1" d="M507.52,632.23c0,5-1.71,9.17-5.13,12.52c-3.42,3.35-7.67,5.03-12.76,5.03c-5.07,0-9.35-1.7-12.82-5.1
			c-3.37-3.28-5.05-7.43-5.05-12.45c0-5.06,1.7-9.25,5.1-12.57c3.4-3.32,7.66-4.98,12.77-4.98s9.38,1.67,12.79,5
			C505.81,623.02,507.52,627.2,507.52,632.23z M489.62,638.54c1.78,0,3.19-0.62,4.23-1.87c0.93-1.14,1.39-2.62,1.39-4.43
			c0-1.84-0.46-3.34-1.39-4.5c-1.04-1.25-2.45-1.87-4.23-1.87c-1.77,0-3.15,0.61-4.15,1.83s-1.5,2.74-1.5,4.55
			c0,1.81,0.48,3.29,1.44,4.43C486.46,637.91,487.86,638.54,489.62,638.54z"/>
		<path class="st1" d="M524.06,648.89v-33.46h12.04v22.6h11.7v10.85H524.06z"/>
		<path class="st1" d="M584.57,646.08c-3.28,2.25-6.94,3.38-10.99,3.38c-3.4,0-6.27-0.83-8.62-2.49c-2.62-1.87-3.93-4.45-3.93-7.72
			c0-2.41,0.72-4.39,2.16-5.94c1.44-1.55,3.36-2.54,5.75-2.95c-2.27-1.96-3.41-4.11-3.41-6.42c0-3.08,1.33-5.45,3.98-7.11
			c2.24-1.43,5-2.15,8.27-2.15c3.15,0,5.84,0.73,8.07,2.19c2.53,1.72,3.79,4.08,3.79,7.06c0,3.93-2.02,6.49-6.06,7.68l3.2,2.95
			c1.77-1.37,3.41-3.05,4.91-5.05l6.58,6.79c-1.46,1.69-3.25,3.11-5.37,4.25l8.18,8.34h-13.94L584.57,646.08z M578.26,639.82
			l-3.93-4.07c-1.22,0.78-1.83,1.58-1.83,2.42c0,0.78,0.3,1.38,0.89,1.81c0.59,0.43,1.28,0.64,2.06,0.64
			C576.48,640.62,577.42,640.35,578.26,639.82z M578.03,626.43c1.31-0.75,1.96-1.65,1.96-2.72c0-0.53-0.17-0.99-0.51-1.36
			c-0.34-0.37-0.78-0.56-1.31-0.56c-0.56,0-1.02,0.21-1.38,0.64c-0.36,0.43-0.54,0.91-0.54,1.46
			C576.25,624.9,576.84,625.74,578.03,626.43z"/>
		<path class="st1" d="M634.93,636.92h-5.23v-7.86h18.49l0.09,1.53c0,0.35,0,0.65,0,0.89c0,3.87-0.72,7.02-2.15,9.46
			c-3.47,5.9-8.74,8.84-15.79,8.84c-5.18,0-9.45-1.66-12.82-4.98s-5.05-7.51-5.05-12.57s1.69-9.25,5.07-12.57
			c3.38-3.32,7.65-4.98,12.8-4.98c6.99,0,12.22,2.95,15.68,8.84l-10.72,3.98c-1.11-1.84-2.7-2.77-4.75-2.77
			c-1.96,0-3.47,0.79-4.5,2.35c-0.9,1.37-1.35,3.08-1.35,5.14c0,2.18,0.46,3.92,1.39,5.23c1.07,1.48,2.64,2.22,4.73,2.22
			C633.28,639.68,634.65,638.76,634.93,636.92z"/>
		<path class="st1" d="M659.74,648.89l11.93-33.46h13.39l11.7,33.46h-12.93l-1.07-4.21h-9.07l-1.03,4.21H659.74z M675.69,636.73h5
			l-1.03-3.79c-0.81-3.03-1.26-5.48-1.35-7.36h-0.25c-0.09,1.87-0.54,4.33-1.35,7.36L675.69,636.73z"/>
		<path class="st1" d="M710.13,648.89v-33.46h15.13c4.08,0,7.28,0.84,9.6,2.51c2.62,1.94,3.93,4.85,3.93,8.75
			c0,2.22-0.52,4.1-1.55,5.62c-1.16,1.69-2.8,2.67-4.91,2.95l8.94,13.62h-13.48l-5.85-11.04v11.04H710.13z M721.92,624.05v6.54h1.87
			c2.38,0,3.56-1.07,3.56-3.22c0-2.21-1.19-3.31-3.56-3.31H721.92z"/>
		<path class="st1" d="M755.14,648.89v-33.46h9.74c6.18,0,10.6,0.7,13.25,2.1c5.99,3.15,8.98,8.04,8.98,14.65
			c0,6.58-2.99,11.45-8.98,14.6c-2.68,1.4-7.4,2.1-14.15,2.1H755.14z M767.07,638.7c5.21-0.05,7.82-2.22,7.82-6.51
			c0-4.31-2.43-6.47-7.29-6.47h-0.53V638.7z"/>
		<path class="st1" d="M803.65,648.89v-33.46h22.37v9.07h-10.58v3.22h9.6v8.57h-9.6v3.52h10.85v9.07H803.65z"/>
		<path class="st1" d="M842.68,648.89v-33.46h11.79l10.4,17.5c-0.24-1.37-0.37-3.47-0.37-6.28v-11.22h11.59v33.46h-11.88
			l-10.28-17.37c0.24,1.49,0.37,3.26,0.37,5.3v12.07H842.68z"/>
	</g>
	<path class="st1" d="M192.51,395.97c24.04-9.04,50.9-7.42,75.27-0.56c11.02,3.2,21.72,7.64,31.54,13.65
		c2.84,1.74,5.9,3.44,9.33,3.47c9.29,0.42,18.56-0.7,27.84-0.23c17.79,0.63,35.24,6.5,50.05,16.31c4.75,3.35,9.98,6.93,12.29,12.49
		c1.29,2.98-1.29,5.71-4.07,6.38c-8.03,2.28-16.56-0.5-24.62,1.73c-9.58,2.09-17.32,8.75-23.36,16.18
		c12.3,29.36,14.85,62.82,6.66,93.61c-6.2,23.57-18.95,45.61-37.33,61.75c-16.65,14.85-37.88,24.26-59.94,27.39
		c-11.18,1.78-22.53,1.32-33.81,1.38c-19.33,0.01-38.65-0.06-57.96,0.03c-0.01-50.72,0.03-101.44-0.03-152.16
		c11.54,2,23.09,4.02,34.61,6.06c3.01,0.25,5.53,2.09,7.15,4.58c3.92,5.78,6.12,12.48,9.22,18.7c2.09,3.58,1.45,7.84,1.54,11.82
		c-0.06,29.43-0.03,58.87-0.03,88.29c21.14-0.12,43.52-4.87,59.76-19.22c12.96-11.15,20.19-28.56,18.52-45.61
		c-1.89-23.48-18.11-43.49-37.76-55.31c-3.99,10.62-2.02,22.4,2.38,32.57c1.2,2.88,2.98,5.68,2.97,8.92
		c-11.94-3-22.69-10.26-29.64-20.45c-7.34-9.86-10.75-21.93-17.34-32.21c-3.58-5.76-11.13-5.24-16.87-7.14
		c-20.93-5.63-43.13-7.5-62.79-17.2c-6.07-3.23-12.77-7.36-14.86-14.32c-1.4-5.3,2.12-10.24,6.07-13.34
		c8.63-6.8,19.59-9.35,30.06-11.78C162.49,414.98,176.31,401.95,192.51,395.97z"/>
</g>
</svg>
